<?xml version="1.0" encoding="UTF-8"?>
<svg version="1.1" xmlns="http://www.w3.org/2000/svg" width="980" height="804">
<path d="M0 0 C1.05512283 -0.00571014 2.11024567 -0.01142029 3.19734192 -0.01730347 C4.35517181 -0.01842133 5.51300171 -0.01953918 6.70591736 -0.02069092 C8.53589012 -0.02813828 8.53589012 -0.02813828 10.40283203 -0.03573608 C13.75501175 -0.04785347 17.10712896 -0.05530746 20.45932317 -0.05974674 C22.56089179 -0.06268276 24.66245502 -0.06678898 26.76402092 -0.07125092 C33.35922471 -0.08493805 39.95441608 -0.09459368 46.54963309 -0.09845281 C54.12296004 -0.10290975 61.69610436 -0.12034134 69.26937586 -0.1494534 C75.14398269 -0.17123722 81.01853886 -0.1811662 86.89318556 -0.18249393 C90.39034931 -0.18353191 93.88734173 -0.18921824 97.38446236 -0.20731354 C122.06487241 -0.3275919 147.50436215 -0.23117787 167.11582947 17.09747314 C176.40904501 26.71175947 180.74017977 39.47003864 184.08067322 52.12872314 C184.44834669 53.47639522 184.81742888 54.82368361 185.18777466 56.17062378 C185.98141898 59.06723018 186.76616046 61.96604054 187.5438385 64.86697388 C188.81079555 69.59136299 190.09902684 74.30979733 191.39097595 79.02740479 C191.8442319 80.68314464 192.29746344 82.33889117 192.75067139 83.99464417 C193.09271071 85.24413566 193.09271071 85.24413566 193.44165993 86.5188694 C194.14654093 89.09673143 194.84947227 91.67511818 195.5519104 94.25364685 C198.9196923 106.60902096 202.34873161 118.94627801 205.81895447 131.27325439 C206.06828798 132.15894104 206.3176215 133.04462769 206.57451057 133.95715332 C207.85104001 138.49022529 209.12866925 143.02298644 210.40681458 147.55560303 C213.05105156 156.93388251 215.68737284 166.3143881 218.32286072 175.69512939 C218.58975645 176.64503754 218.85665218 177.59494568 219.13163567 178.57363892 C228.54429669 212.08030555 237.85883035 245.6144205 247.17727661 279.14738464 C250.33685338 290.51698418 253.50043807 301.88545551 256.66856956 313.2526741 C265.2517195 344.0515107 273.77814184 374.8656902 282.21476746 405.70501709 C283.16599065 409.18208395 284.11881058 412.65870677 285.07304382 416.13494873 C286.18373693 420.18195423 287.29059521 424.22998869 288.39438248 428.27888298 C288.80172561 429.77082341 289.21035273 431.26241394 289.620327 432.7536335 C290.18066444 434.7928301 290.73626626 436.83325829 291.29063416 438.87408447 C291.6033728 440.01815262 291.91611145 441.16222076 292.23832703 442.34095764 C292.90098572 445.14044189 292.90098572 445.14044189 292.90098572 448.14044189 C351.80760987 448.08156207 410.71419892 448.00702123 469.62077518 447.91145561 C476.5751811 447.90017734 483.52958725 447.88904554 490.48399353 447.87799072 C491.17603143 447.87688816 491.86806933 447.87578559 492.58107808 447.87464962 C515.00203474 447.83899682 537.42298992 447.81301129 559.84396473 447.79205221 C583.54287851 447.7698459 607.2417497 447.73659609 630.94063258 447.69174033 C645.13451981 447.66523097 659.32836191 447.6475303 673.52227268 447.64109585 C683.25546163 447.63583982 692.98859379 447.61961549 702.72175232 447.59477624 C708.33730552 447.58076879 713.95275709 447.57158766 719.56832886 447.57543373 C724.71321958 447.57885055 729.85789343 447.56844095 735.00273976 447.54720638 C736.86026866 447.54194958 738.71782015 447.54169188 740.57534876 447.54704627 C757.09030531 447.78080493 757.09030531 447.78080493 772.28379822 442.03497314 C775.70386154 438.2524852 778.23188543 434.23368079 780.77598572 429.82794189 C781.29990906 428.93566895 781.8238324 428.043396 782.3636322 427.12408447 C786.50393973 419.99740908 790.3140731 412.75820397 793.85850525 405.31964111 C794.98136165 402.9724242 796.12586647 400.63649329 797.27207947 398.30059814 C803.71810234 385.08172214 809.70893427 371.67489429 815.64952087 358.22418213 C819.95613732 348.47923609 824.33615832 338.77218607 828.79066467 329.09399414 C835.6615253 314.16396535 842.32770356 299.15189817 848.91270447 284.09381104 C856.56015425 266.60778248 864.31401626 249.1697894 872.07705688 231.73483276 C875.08554302 224.97684728 878.08654906 218.21557144 881.08457947 211.45294189 C882.37039664 208.5537855 883.65637813 205.6547021 884.94248962 202.75567627 C885.7863091 200.85343552 886.62989829 198.9510926 887.47325134 197.04864502 C891.69196518 187.5350822 895.92993309 178.03233391 900.27989197 168.57794189 C900.62323074 167.83014465 900.96656952 167.08234741 901.3203125 166.31188965 C902.88971675 162.89548212 904.46597917 159.48267907 906.05845642 156.07696533 C909.09739519 149.5213426 911.80928048 142.92562625 914.22520447 136.11700439 C914.47390289 135.41653992 914.72260132 134.71607544 914.97883606 133.99438477 C918.23115244 124.58642816 920.09952248 115.03385732 917.90098572 105.14044189 C914.76342993 102.00288611 911.63973282 102.01550538 907.34405982 102.01443404 C906.42741298 102.01177823 905.51076614 102.00912242 904.56634212 102.00638613 C903.05825288 102.00963522 903.05825288 102.00963522 901.51969719 102.01294994 C900.44596049 102.01130611 899.37222378 102.00966228 898.26594961 102.00796863 C894.63735463 102.0036277 891.00879932 102.00643681 887.38020325 102.00914001 C884.7646294 102.00743888 882.14905582 102.00528966 879.53348267 102.00272876 C873.83077288 101.99783001 868.12807137 101.99658374 862.42535973 101.99769402 C853.94505726 101.99930229 845.46476464 101.9951454 836.98446416 101.98961354 C823.59337074 101.98095632 810.20227863 101.97559859 796.81118288 101.97241202 C775.55200839 101.9672725 754.29285072 101.95181098 733.03368452 101.93283554 C728.5107694 101.92881392 723.9878542 101.92489305 719.464939 101.92096919 C718.56328196 101.92018653 717.66162492 101.91940387 716.73264494 101.9185975 C714.90548706 101.91701192 713.07832918 101.91542709 711.2511713 101.91384302 C709.4172327 101.91225174 707.5832941 101.91065749 705.74935551 101.90906028 C684.11532982 101.89022452 662.481303 101.87314098 640.84727478 101.85748291 C639.90048881 101.85679399 638.95370283 101.85610507 637.97822637 101.85539527 C607.27620801 101.83313279 576.57419451 101.82129487 545.87216938 101.81381635 C514.31420982 101.80605328 482.75628349 101.78500131 451.19834383 101.74827375 C446.74208885 101.74309999 442.28583369 101.73809266 437.8295784 101.73319435 C436.95253808 101.73222739 436.07549775 101.73126044 435.17188045 101.73026418 C421.05176051 101.71511626 406.93167382 101.7142305 392.81154799 101.71885148 C378.62104565 101.72323359 364.43061157 101.71333472 350.24012928 101.68876442 C341.80826096 101.67461612 333.37655984 101.67164074 324.94468871 101.68460694 C318.65034093 101.69306653 312.3561953 101.68074279 306.06187858 101.66031799 C303.51406195 101.65530982 300.96622128 101.65707786 298.41841625 101.66625067 C294.95772587 101.67773191 291.49795777 101.66465266 288.03732109 101.64545727 C287.04597526 101.65464682 286.05462943 101.66383638 285.03324282 101.67330441 C277.60311883 101.59222686 270.27829532 100.24265002 264.64707947 95.07012939 C263.99932556 94.05305908 263.99932556 94.05305908 263.33848572 93.01544189 C262.88344666 92.33223877 262.42840759 91.64903564 261.95957947 90.94512939 C258.73445212 85.44694182 259.29368629 79.36355514 259.90098572 73.14044189 C262.10597614 67.13847627 266.3240479 63.08578664 271.89688176 60.0549587 C276.40545547 58.68244747 280.77904177 58.86407718 285.46664906 58.88317299 C286.54818389 58.87966691 287.62971873 58.87616084 288.74402735 58.87254852 C292.39322444 58.86319346 296.04226338 58.86816849 299.69146729 58.87301636 C302.32425708 58.86928214 304.9570349 58.86476158 307.58982056 58.85928571 C313.32720375 58.84897012 319.06455319 58.84614462 324.80194473 58.84819794 C333.33411246 58.851244 341.86624275 58.84293252 350.3984032 58.83244869 C366.52504416 58.81308748 382.65167242 58.8074796 398.77832363 58.80633457 C411.23516461 58.80541589 423.69200059 58.8013013 436.14883995 58.79493332 C439.73315801 58.79313824 443.31747607 58.79135861 446.90179414 58.78958356 C448.23838825 58.78892042 448.23838825 58.78892042 449.60198427 58.78824388 C474.67450969 58.77593134 499.74703338 58.76804313 524.81956196 58.76893044 C525.76525895 58.76896159 526.71095594 58.76899275 527.68531041 58.76902485 C532.47858042 58.76919107 537.27185043 58.76938915 542.06512044 58.76959427 C543.01709097 58.76963416 543.9690615 58.76967405 544.94987962 58.76971515 C546.87499961 58.76979602 548.80011961 58.76987962 550.7252396 58.76996593 C580.66055007 58.77119077 610.59581518 58.75619231 640.53111267 58.7288208 C674.16002346 58.69808473 707.78890445 58.68088934 741.41783017 58.68274724 C745.00560613 58.68289651 748.5933821 58.68299392 752.18115807 58.68305588 C753.50626562 58.68309084 753.50626562 58.68309084 754.85814303 58.68312651 C769.06350545 58.68318801 783.26882846 58.67042557 797.47417917 58.65319135 C811.75986913 58.63621859 826.04550157 58.63427377 840.33119605 58.64740999 C848.81291865 58.65478915 857.29446629 58.65117232 865.77617028 58.63152531 C871.4500941 58.61949563 877.12389168 58.62214944 882.7978098 58.63646631 C886.02539826 58.64420453 889.25258399 58.6436171 892.48016075 58.6295516 C912.61019174 58.54766116 932.29621572 59.27306072 947.79551697 73.83966064 C960.85522204 88.11084114 961.75815065 104.41109498 961.12754822 122.84307861 C960.55296699 131.20546445 958.39620442 139.16932148 955.90098572 147.14044189 C955.69763611 147.80173096 955.4942865 148.46302002 955.28477478 149.14434814 C951.74036658 160.29555688 946.41901387 170.79544536 941.45657349 181.36175537 C937.30216496 190.21691383 933.29807353 199.13418457 929.33848572 208.07794189 C929.00919067 208.82129791 928.67989563 209.56465393 928.34062195 210.33053589 C926.95898653 213.44993997 925.57799699 216.56962843 924.19810486 219.68980408 C920.28164661 228.54539696 916.34699826 237.39288686 912.41264343 246.24053955 C910.29232916 251.00901567 908.17282514 255.77785187 906.05332947 260.54669189 C905.6288855 261.50164551 905.20444153 262.45659912 904.76713562 263.44049072 C901.77017555 270.18368637 898.77479154 276.9275809 895.77989197 283.67169189 C885.8989649 305.92037086 875.99904638 328.16032604 866.03819275 350.37335205 C864.57186289 353.64334124 863.10682463 356.91390508 861.64268494 360.18487549 C851.9113317 381.92193925 842.14587223 403.63939942 831.90098572 425.14044189 C831.43756775 426.11400635 830.97414978 427.0875708 830.49668884 428.09063721 C818.6943212 452.72656321 806.01529269 476.28962285 779.08067322 486.17559814 C765.33742532 490.25754789 751.1730993 490.43072364 736.97546387 490.38095093 C735.10223248 490.38182481 733.22900134 490.38357914 731.35577148 490.38612926 C726.24752009 490.39057088 721.13935362 490.38264329 716.03111303 490.37257314 C710.50780783 490.36389467 704.984507 490.3668619 699.4611969 490.36837769 C689.90467771 490.36942377 680.34818595 490.36317617 670.79167366 490.35190201 C656.97475255 490.33561234 643.15784463 490.33043546 629.34091496 490.32792602 C606.92107123 490.32355436 584.50124083 490.31027685 562.08140564 490.2913208 C540.30927099 490.27293371 518.53714025 490.25877543 496.76499939 490.25030518 C496.09315307 490.25004212 495.42130674 490.24977907 494.72910144 490.24950805 C487.9817624 490.24687087 481.23442333 490.24431926 474.48708423 490.24183033 C417.95837448 490.22097025 361.42968087 490.18569795 304.90098572 490.14044189 C306.14992755 493.15424262 307.4057395 496.16513578 308.66270447 499.17559814 C309.01232239 500.01949097 309.36194031 500.86338379 309.72215271 501.73284912 C315.15372738 514.71403019 321.91367168 525.25905391 331.90098572 535.14044189 C332.48364197 535.74501221 333.06629822 536.34958252 333.66661072 536.97247314 C347.65826439 550.36347501 367.34112447 551.60961143 385.61509705 551.51225281 C387.23600388 551.51483464 388.85690904 551.51874225 390.47780991 551.52384239 C394.88430181 551.5340172 399.29059043 551.52588063 403.69707227 551.51454556 C408.46727733 551.50562962 413.23745548 551.51421373 418.00765991 551.52075195 C426.25837521 551.52987549 434.50903478 551.52860527 442.75975037 551.52056694 C454.69736945 551.50930244 466.63490968 551.51840479 478.57252192 551.53312875 C497.95560876 551.5568584 517.33868584 551.57026009 536.7217865 551.57427979 C537.87997037 551.57452465 539.03815423 551.57476952 540.23143458 551.57502181 C553.16480322 551.57756998 566.0981711 551.57813312 579.03153992 551.5770874 C583.72874451 551.57675433 588.42594909 551.57646895 593.12315369 551.57623291 C594.28234216 551.57617012 595.44153063 551.57610733 596.63584602 551.57604264 C615.95962455 551.575438 635.28335794 551.59030753 654.60711765 551.61706597 C666.51733556 551.63287099 678.42740778 551.6351292 690.33762723 551.61993194 C698.49097567 551.61047546 706.64423613 551.61520899 714.79757422 551.63114577 C719.50142727 551.63984917 724.20504662 551.64195816 728.90888786 551.62661934 C733.21536772 551.61268792 737.52142438 551.61713973 741.82788122 551.63614035 C743.38473503 551.63975049 744.9416224 551.63660819 746.4984442 551.62599068 C754.49891405 551.57510704 761.05879877 551.55909502 767.90098572 556.14044189 C769.95957947 558.35919189 769.95957947 558.35919189 771.33848572 560.64044189 C771.81157166 561.39325439 772.28465759 562.14606689 772.77207947 562.92169189 C775.23685051 567.76594778 775.74255313 572.88555617 774.36973572 578.19512939 C772.36271288 583.97622779 769.9348422 587.77386638 764.76174259 591.24974155 C758.226748 594.39040725 750.89954178 593.68782063 743.81637573 593.64164734 C742.16611186 593.64554247 740.51585135 593.65118461 738.86559874 593.65841824 C734.3404818 593.67316151 729.81571325 593.6629982 725.29060757 593.64868152 C720.40628108 593.6375686 715.52200332 593.64951568 710.63768005 593.65852356 C701.07114215 593.67245801 691.50473625 593.66489724 681.93820464 593.64984798 C670.79043794 593.63297999 659.64270406 593.63619938 648.49492855 593.63994206 C628.59517943 593.64582152 608.69549356 593.63164828 588.79576111 593.60699463 C569.50341925 593.58309626 550.21116198 593.57598148 530.91880798 593.58648682 C509.90224728 593.59791058 488.88572572 593.59980632 467.86916548 593.58538872 C465.6253173 593.58386293 463.38146911 593.58234258 461.13762093 593.58082771 C460.03368329 593.5800699 458.92974566 593.57931208 457.79235537 593.57853131 C450.03022416 593.57379797 442.26811047 593.57563333 434.50597954 593.57989311 C425.03505852 593.58483337 415.56421732 593.57877563 406.09331452 593.55899882 C401.26515208 593.54916367 396.43711084 593.54398052 391.60894203 593.55189133 C387.18032249 593.55899862 382.7519464 593.55202668 378.32335872 593.5342877 C376.72980644 593.53027547 375.1362316 593.53118811 373.542688 593.53780656 C347.45336004 593.63680292 323.3432368 585.68352236 304.26817322 567.49981689 C303.48700134 566.72122314 302.70582947 565.94262939 301.90098572 565.14044189 C300.64414978 563.89327393 300.64414978 563.89327393 299.36192322 562.62091064 C291.28729332 554.48219638 284.71917118 545.98619798 278.90098572 536.14044189 C278.55680603 535.5619751 278.21262634 534.9835083 277.85801697 534.38751221 C267.75346538 517.14976663 262.06838069 498.22754789 257.14808655 478.97937012 C255.5748127 472.84317818 253.95246655 466.71994943 252.32676697 460.59747314 C252.06645974 459.61586842 252.06645974 459.61586842 251.80089378 458.61443329 C247.27932135 441.59122335 242.38317752 424.67708161 237.46348572 407.76544189 C237.23267555 406.97160976 237.00186539 406.17777763 236.76406097 405.35988998 C233.88652684 395.46444072 230.99893732 385.57194588 228.10583878 375.68103695 C226.39754496 369.84042691 224.69207209 363.99899973 222.98838806 358.15704346 C210.65141101 315.85642976 198.20952287 273.58717165 185.71177673 231.33380127 C178.79493584 207.94772511 171.89695265 184.5561952 165.01991367 161.15838242 C163.15665089 154.81998531 161.2897065 148.48268058 159.42124939 142.14581299 C158.4102621 138.71573334 157.39961957 135.2855523 156.38926697 131.85528564 C156.02514615 130.61915276 156.02514615 130.61915276 155.65366936 129.35804749 C152.61894498 119.05008154 149.62970501 108.73099326 146.69395447 98.39434814 C145.81706307 95.33180165 144.93878387 92.26965768 144.05982971 89.20770264 C143.31397405 86.58644902 142.58854808 83.96019658 141.86460876 81.33282471 C137.87485444 67.22110204 131.02524004 56.63616347 118.45957947 48.57403564 C105.71602413 41.72156207 92.71237998 41.72825399 78.61637115 41.79088211 C75.20212052 41.8047408 71.78844319 41.79811359 68.37419128 41.78604126 C58.67572566 41.75523715 48.9773995 41.75999634 39.27891541 41.78009033 C33.32566838 41.79101783 27.37285666 41.77780445 21.4196701 41.75019455 C19.15992248 41.74476598 16.90013098 41.7487871 14.64041901 41.76259232 C11.48167424 41.78168075 8.32435506 41.770219 5.16563416 41.7522583 C4.24077209 41.76559708 3.31591003 41.77893585 2.36302185 41.79267883 C-4.73135978 41.70324038 -9.60283104 39.60898558 -14.66023636 34.59156227 C-20.08631875 28.37758552 -19.60571295 22.02350385 -19.09901428 14.14044189 C-17.36956558 8.30355253 -12.90897031 4.66063149 -8.09901428 1.14044189 C-5.106983 0.14309813 -3.12506701 0.0101289 0 0 Z " fill="#060606" transform="translate(19.099014282226563,-0.14044189453125)"/>
<path d="M0 0 C2.4550261 1.95748383 4.86508028 3.95680136 7.265625 5.98046875 C8.09835937 6.61984375 8.93109375 7.25921875 9.7890625 7.91796875 C27.05906395 22.30055671 37.02603489 45.72506929 39.953125 67.48046875 C42.05135667 91.47899352 36.38730429 117.19650215 21.265625 136.41796875 C19.94431241 137.94925737 18.61130651 139.47055052 17.265625 140.98046875 C16.65203125 141.73585938 16.0384375 142.49125 15.40625 143.26953125 C1.50445639 159.98615084 -20.24512725 171.0609394 -41.734375 173.98046875 C-69.17336735 175.89199222 -95.20878815 171.54858644 -116.79296875 153.41015625 C-119.86975872 150.69356414 -122.8116747 147.86211989 -125.734375 144.98046875 C-126.83265625 143.90152344 -126.83265625 143.90152344 -127.953125 142.80078125 C-146.03710404 123.78389853 -152.62423823 98.11605944 -152.015625 72.5078125 C-150.98216837 47.18381892 -139.47645768 25.50260826 -121.734375 7.98046875 C-121.04601562 7.29339844 -120.35765625 6.60632813 -119.6484375 5.8984375 C-87.92912213 -23.74640788 -34.58910388 -25.54652387 0 0 Z M-97.734375 40.98046875 C-108.45370515 53.99989808 -112.94357062 68.22725842 -111.734375 84.98046875 C-109.65670986 100.75183595 -101.59242067 114.3194405 -89.03515625 124.078125 C-75.55189354 133.13749267 -60.5546994 135.86440185 -44.59765625 133.51953125 C-29.14223505 129.68387927 -16.32642768 120.37267331 -7.734375 106.98046875 C-0.25272348 93.07176022 2.0135469 77.25963642 -2.359375 61.91796875 C-7.717346 47.16954683 -18.08751467 34.69638943 -32.2734375 27.734375 C-34.73537063 26.69396053 -37.19079804 25.79951699 -39.734375 24.98046875 C-40.42789063 24.75488281 -41.12140625 24.52929688 -41.8359375 24.296875 C-62.00406601 18.82051052 -83.70798063 25.79895955 -97.734375 40.98046875 Z " fill="#070707" transform="translate(824.734375,630.01953125)"/>
<path d="M0 0 C20.61577105 15.6060476 36.1673283 37.44075361 40.33886719 63.36083984 C43.48480898 89.92493713 38.61587336 116.41113431 22.02734375 137.9453125 C5.37795766 157.81105727 -15.17728006 171.16801947 -41.34765625 175.0078125 C-68.6658 176.62091351 -94.1483365 172.42129 -115.74609375 154.3203125 C-134.02505498 138.07234696 -149.01884062 116.34841066 -150.5246582 91.03198242 C-151.06522094 61.97727373 -151.06522094 61.97727373 -146.34765625 49.0078125 C-145.96222656 47.94046875 -145.57679688 46.873125 -145.1796875 45.7734375 C-135.13984163 20.17020595 -116.67687023 1.3140604 -91.65625 -9.7109375 C-61.29119394 -21.46977857 -27.07347343 -18.1575476 0 0 Z M-97.00195312 42.47070312 C-107.41871505 54.36909446 -111.28990414 68.52840995 -110.6640625 84.03125 C-109.41012936 99.79055784 -101.76184753 112.47749718 -90.34765625 123.0078125 C-77.28214794 133.23539658 -62.60665717 136.32795704 -46.34765625 135.0078125 C-30.77745726 132.26105361 -18.07106436 123.89037319 -8.53515625 111.3203125 C-0.12590994 98.63686298 2.21005455 83.68349807 0.2265625 68.81640625 C-2.9384812 54.23390431 -11.38189688 41.35046393 -23.84765625 33.1328125 C-48.33996045 18.63527868 -77.06057528 21.26755997 -97.00195312 42.47070312 Z " fill="#070707" transform="translate(435.34765625,628.9921875)"/>
<path d="M0 0 C0.66 0.33 1.32 0.66 2 1 C-4.27 7.27 -10.54 13.54 -17 20 C-17.66 19.67 -18.32 19.34 -19 19 C-12.98348207 12.26459665 -7.02537494 5.71692402 0 0 Z " fill="#5F5F5F" transform="translate(711,631)"/>
<path d="M0 0 C-1.5830577 4.2742558 -4.50568404 6.26531794 -8 9 C-6.68994234 5.06982701 -4.75047804 0 0 0 Z " fill="#5B5B5B" transform="translate(289,62)"/>
</svg>
